<svg id="a16cd07b-b2fd-48a9-a439-706cdd4f485a" data-name="Base" xmlns="http://www.w3.org/2000/svg" viewBox="0 0 263 268">
  <defs>
    <style>
      .b24b7fec-e0f8-4c62-8de0-bef5eac22d50, .b331cccd-ff98-4ce4-9e17-7e7bbcb816e1, .bdf90b52-3f0e-4bfb-92d2-0c2ab250ab61 {
        fill: none;
        stroke: #000;
        stroke-miterlimit: 10;
      }

      .b24b7fec-e0f8-4c62-8de0-bef5eac22d50 {
        stroke-width: 13px;
      }

      .b331cccd-ff98-4ce4-9e17-7e7bbcb816e1 {
        stroke-width: 9px;
      }

      .bdf90b52-3f0e-4bfb-92d2-0c2ab250ab61 {
        stroke-width: 10px;
      }
    </style>
  </defs>
  <title>Mogul-Management-Logo</title>
  <g>
    <ellipse class="b24b7fec-e0f8-4c62-8de0-bef5eac22d50" cx="131.5" cy="134" rx="125" ry="127.5"/>
    <g>
      <rect x="69.5" y="86.57" width="36" height="69.36"/>
      <line class="b24b7fec-e0f8-4c62-8de0-bef5eac22d50" x1="76" y1="207.95" x2="76" y2="153.89"/>
      <line class="b24b7fec-e0f8-4c62-8de0-bef5eac22d50" x1="99" y1="207.95" x2="99" y2="153.89"/>
      <line class="b24b7fec-e0f8-4c62-8de0-bef5eac22d50" x1="54.5" y1="93.2" x2="120.5" y2="93.2"/>
      <line class="b24b7fec-e0f8-4c62-8de0-bef5eac22d50" x1="59.5" y1="141.65" x2="59.5" y2="87.59"/>
      <line class="b24b7fec-e0f8-4c62-8de0-bef5eac22d50" x1="115.5" y1="141.65" x2="115.5" y2="87.59"/>
      <ellipse cx="87" cy="66.17" rx="16" ry="16.32"/>
    </g>
    <g>
      <rect class="b331cccd-ff98-4ce4-9e17-7e7bbcb816e1" x="135.5" y="122.78" width="70" height="71.4" rx="13"/>
      <line class="b331cccd-ff98-4ce4-9e17-7e7bbcb816e1" x1="159.5" y1="124.82" x2="159.5" y2="105.44"/>
      <line class="b331cccd-ff98-4ce4-9e17-7e7bbcb816e1" x1="180.5" y1="123.8" x2="180.5" y2="104.42"/>
      <line class="bdf90b52-3f0e-4bfb-92d2-0c2ab250ab61" x1="153" y1="102.38" x2="187" y2="102.38"/>
      <ellipse cx="152.5" cy="204.38" rx="7.5" ry="7.65"/>
      <ellipse cx="189.5" cy="204.38" rx="7.5" ry="7.65"/>
    </g>
    <line class="b331cccd-ff98-4ce4-9e17-7e7bbcb816e1" x1="158.5" y1="139.1" x2="158.5" y2="173.78"/>
    <line class="b331cccd-ff98-4ce4-9e17-7e7bbcb816e1" x1="182.5" y1="139.1" x2="182.5" y2="173.78"/>
  </g>
</svg>
