<svg width="256px" height="256px" id="a8e653ce-69ca-48f7-acfc-ecebb071cb0b" data-name="Base" xmlns="http://www.w3.org/2000/svg" xmlns:xlink="http://www.w3.org/1999/xlink" viewBox="0 -80 1025.45 668.5">
  <defs>
    <style>
      .a74c97a0-ee9d-46ea-b174-c3877cb39842, .a9e6a58b-70aa-4a9b-b6ea-6334e50d2ad1, .e98eb3ad-74f5-421f-b73c-0d1a82ead842, .ee95399e-d4ad-4a09-bd10-a594008931a2 {
        fill: none;
      }

      .fc973cdf-8a2a-49c0-9bb8-82ad12ac5aca {
        fill: none;
      }

      .a74c97a0-ee9d-46ea-b174-c3877cb39842, .a9e6a58b-70aa-4a9b-b6ea-6334e50d2ad1, .b2f98874-ca86-492e-8610-edb5a0f963c6, .e98eb3ad-74f5-421f-b73c-0d1a82ead842, .fc973cdf-8a2a-49c0-9bb8-82ad12ac5aca {
        stroke: #000;
        stroke-miterlimit: 10;
      }

      .b2f98874-ca86-492e-8610-edb5a0f963c6, .e98eb3ad-74f5-421f-b73c-0d1a82ead842, .fc973cdf-8a2a-49c0-9bb8-82ad12ac5aca {
        stroke-linecap: round;
      }

      .a9e6a58b-70aa-4a9b-b6ea-6334e50d2ad1, .e98eb3ad-74f5-421f-b73c-0d1a82ead842, .fc973cdf-8a2a-49c0-9bb8-82ad12ac5aca {
        stroke-width: 13px;
      }

      .a1e5c376-0031-4153-9c52-0f0e46f0a255 {
        clip-path: url(#ac0c71ef-ba4e-432b-b99b-7ec6ab4fa8d4);
      }

      .af5aa922-1289-49df-a0f4-d3036e08dedf {
        clip-path: url(#ba5c4c07-3606-4fbc-a228-7fc5105a2e63);
      }

      .a74c97a0-ee9d-46ea-b174-c3877cb39842 {
        stroke-width: 10px;
      }

      .ba87c584-3bbc-4dfe-8df2-2bc9d12f47cc {
        clip-path: url(#bf279fc7-add0-40ca-a919-f7161e7e861c);
      }

      .bfce4c59-8eac-4cfa-b3e3-a972daaa68e2 {
        clip-path: url(#a27ea20e-3421-4381-8cc3-0a01bddd273b);
      }
    </style>
    <clipPath id="ac0c71ef-ba4e-432b-b99b-7ec6ab4fa8d4">
      <polygon class="ee95399e-d4ad-4a09-bd10-a594008931a2" points="0 541.5 154 541.5 154 607.5 221 607.5 238.45 607.5 238 688.5 0 688.5 0 541.5"/>
    </clipPath>
    <clipPath id="ba5c4c07-3606-4fbc-a228-7fc5105a2e63">
      <polygon class="ee95399e-d4ad-4a09-bd10-a594008931a2" points="1025.45 541.5 871.45 541.5 871.45 607.5 804.45 607.5 787 607.5 787.45 688.5 1025.45 688.5 1025.45 541.5"/>
    </clipPath>
    <clipPath id="bf279fc7-add0-40ca-a919-f7161e7e861c">
      <polygon class="ee95399e-d4ad-4a09-bd10-a594008931a2" points="656 152.5 511 257 368 152.5 319.5 114 513.5 -18 680.5 128 656 152.5"/>
    </clipPath>
    <clipPath id="a27ea20e-3421-4381-8cc3-0a01bddd273b">
      <rect class="ee95399e-d4ad-4a09-bd10-a594008931a2" x="154" y="-17.5" width="714" height="509"/>
    </clipPath>
  </defs>
  <title>Mogul-Management-Logo</title>
  <g>
    <g>
      <g>
        <line class="a9e6a58b-70aa-4a9b-b6ea-6334e50d2ad1" x1="368" y1="176.5" x2="215" y2="290.5"/>
        <g>
          <line class="a74c97a0-ee9d-46ea-b174-c3877cb39842" x1="812" y1="293.5" x2="655" y2="176.5"/>
          <line class="a9e6a58b-70aa-4a9b-b6ea-6334e50d2ad1" x1="812" y1="293.5" x2="655" y2="176.5"/>
        </g>
      </g>
      <g class="ba87c584-3bbc-4dfe-8df2-2bc9d12f47cc">
        <g>
          <line class="a9e6a58b-70aa-4a9b-b6ea-6334e50d2ad1" x1="355" y1="138.5" x2="512.5" y2="19.5"/>
          <polyline class="a9e6a58b-70aa-4a9b-b6ea-6334e50d2ad1" points="483.81 41.18 510.5 19.5 534 37.37 667 138.5"/>
          <line class="e98eb3ad-74f5-421f-b73c-0d1a82ead842" x1="390.5" y1="114" x2="391" y2="174.5"/>
          <line class="e98eb3ad-74f5-421f-b73c-0d1a82ead842" x1="632.5" y1="114" x2="632.5" y2="178"/>
        </g>
      </g>
      <polyline class="a9e6a58b-70aa-4a9b-b6ea-6334e50d2ad1" points="488.5 267 511 284.5 534.5 267 656 176.5 627.65 197.61"/>
      <g>
        <polyline class="a74c97a0-ee9d-46ea-b174-c3877cb39842" points="337.58 199.16 368 176.5 398 199.16 511 284.5"/>
        <polyline class="e98eb3ad-74f5-421f-b73c-0d1a82ead842" points="337.58 199.16 368 176.5 398 199.16 511 284.5"/>
      </g>
      <polyline class="a9e6a58b-70aa-4a9b-b6ea-6334e50d2ad1" points="685 199.5 656 176.5 613.24 208.35"/>
      <g class="bfce4c59-8eac-4cfa-b3e3-a972daaa68e2">
        <g>
          <line class="e98eb3ad-74f5-421f-b73c-0d1a82ead842" x1="367.5" y1="321.5" x2="511.5" y2="429.5"/>
          <line class="e98eb3ad-74f5-421f-b73c-0d1a82ead842" x1="246.5" y1="267" x2="246.5" y2="502"/>
          <line class="e98eb3ad-74f5-421f-b73c-0d1a82ead842" x1="776.5" y1="267" x2="776.5" y2="502"/>
          <line class="e98eb3ad-74f5-421f-b73c-0d1a82ead842" x1="655.5" y1="321.5" x2="655.5" y2="501.5"/>
          <polyline class="e98eb3ad-74f5-421f-b73c-0d1a82ead842" points="385.73 335.45 367.5 321 367.5 352.51 367.5 501"/>
          <g>
            <polyline class="a74c97a0-ee9d-46ea-b174-c3877cb39842" points="656 356.3 656 321.5 628.99 341.62 535.84 411 511 429.5 488.5 412"/>
            <polyline class="e98eb3ad-74f5-421f-b73c-0d1a82ead842" points="656 356.3 656 321.5 628.99 341.62 535.84 411 511 429.5 488.5 412"/>
          </g>
        </g>
      </g>
      <g>
        <rect class="b2f98874-ca86-492e-8610-edb5a0f963c6" x="489" y="97.5" width="18" height="18"/>
        <rect class="b2f98874-ca86-492e-8610-edb5a0f963c6" x="516" y="97.5" width="18" height="18"/>
        <rect class="b2f98874-ca86-492e-8610-edb5a0f963c6" x="489" y="123.5" width="18" height="18"/>
        <rect class="b2f98874-ca86-492e-8610-edb5a0f963c6" x="516" y="123.5" width="18" height="18"/>
      </g>
      <g>
        <rect class="b2f98874-ca86-492e-8610-edb5a0f963c6" x="346" y="246.5" width="18" height="18"/>
        <rect class="b2f98874-ca86-492e-8610-edb5a0f963c6" x="373" y="246.5" width="18" height="18"/>
        <rect class="b2f98874-ca86-492e-8610-edb5a0f963c6" x="346" y="272.5" width="18" height="18"/>
        <rect class="b2f98874-ca86-492e-8610-edb5a0f963c6" x="373" y="272.5" width="18" height="18"/>
      </g>
      <g>
        <rect class="b2f98874-ca86-492e-8610-edb5a0f963c6" x="633" y="249.5" width="18" height="18"/>
        <rect class="b2f98874-ca86-492e-8610-edb5a0f963c6" x="660" y="249.5" width="18" height="18"/>
        <rect class="b2f98874-ca86-492e-8610-edb5a0f963c6" x="633" y="275.5" width="18" height="18"/>
        <rect class="b2f98874-ca86-492e-8610-edb5a0f963c6" x="660" y="275.5" width="18" height="18"/>
      </g>
    </g>
  </g>
</svg>
