<svg id="f3cb32d0-fc8a-476f-8e36-ce51fa9262c0" data-name="Base" xmlns="http://www.w3.org/2000/svg" xmlns:xlink="http://www.w3.org/1999/xlink" viewBox="0 0 1025.45 668.5">
  <defs>
    <style>
      .acb7fe38-5c6f-4dde-827a-e94d7c93c21f, .b81f23dd-bf53-4db0-adfa-23f670f783df, .e53b665f-d813-4d58-82e5-ac4b244a11ef, .ea7a1d90-fba5-4816-8419-efe7653cb63f {
        fill: none;
      }

      .a5ab7a66-ff31-403b-a8c6-50dd1e03ddce {
        fill: none;
      }

      .a5ab7a66-ff31-403b-a8c6-50dd1e03ddce, .acb7fe38-5c6f-4dde-827a-e94d7c93c21f, .b81f23dd-bf53-4db0-adfa-23f670f783df, .bd4e7233-ed88-4457-832d-34efdf454ccb, .e53b665f-d813-4d58-82e5-ac4b244a11ef {
        stroke: #000;
        stroke-miterlimit: 10;
      }

      .a5ab7a66-ff31-403b-a8c6-50dd1e03ddce, .b81f23dd-bf53-4db0-adfa-23f670f783df, .bd4e7233-ed88-4457-832d-34efdf454ccb {
        stroke-linecap: round;
      }

      .a5ab7a66-ff31-403b-a8c6-50dd1e03ddce, .acb7fe38-5c6f-4dde-827a-e94d7c93c21f, .b81f23dd-bf53-4db0-adfa-23f670f783df {
        stroke-width: 13px;
      }

      .fc880d29-2739-4466-ad6d-d106ef1bf4dd {
        clip-path: url(#f5eca1c8-b3a8-4197-bef5-f13677623828);
      }

      .f5b9a554-4623-4005-813d-aaf9fd5e307b {
        clip-path: url(#ad2573d0-06f9-4e67-be90-fbbc49d02bc3);
      }

      .e53b665f-d813-4d58-82e5-ac4b244a11ef {
        stroke-width: 10px;
      }

      .e55600ee-43d5-48e8-91df-d1f07f8e1004 {
        clip-path: url(#afcd3254-9544-4105-9ddd-73aa34fcda92);
      }

      .ea81b97f-6365-483b-8305-56ef8fba007e {
        clip-path: url(#e4a61643-637a-4de2-8a00-de1d715fb6da);
      }
    </style>
    <clipPath id="f5eca1c8-b3a8-4197-bef5-f13677623828">
      <polygon class="ea7a1d90-fba5-4816-8419-efe7653cb63f" points="0 541.5 154 541.5 154 607.5 221 607.5 238.45 607.5 238 688.5 0 688.5 0 541.5"/>
    </clipPath>
    <clipPath id="ad2573d0-06f9-4e67-be90-fbbc49d02bc3">
      <polygon class="ea7a1d90-fba5-4816-8419-efe7653cb63f" points="1025.45 541.5 871.45 541.5 871.45 607.5 804.45 607.5 787 607.5 787.45 688.5 1025.45 688.5 1025.45 541.5"/>
    </clipPath>
    <clipPath id="afcd3254-9544-4105-9ddd-73aa34fcda92">
      <polygon class="ea7a1d90-fba5-4816-8419-efe7653cb63f" points="656 152.5 511 257 368 152.5 319.5 114 513.5 -18 680.5 128 656 152.5"/>
    </clipPath>
    <clipPath id="e4a61643-637a-4de2-8a00-de1d715fb6da">
      <rect class="ea7a1d90-fba5-4816-8419-efe7653cb63f" x="154" y="-17.5" width="714" height="509"/>
    </clipPath>
  </defs>
  <title>Mogul-Management-Logo</title>
  <g>
    <rect class="a5ab7a66-ff31-403b-a8c6-50dd1e03ddce" x="154" y="511.5" width="714" height="96"/>
    <g class="fc880d29-2739-4466-ad6d-d106ef1bf4dd">
      <polygon class="b81f23dd-bf53-4db0-adfa-23f670f783df" points="220.5 655.5 30.5 655.5 96.83 607.75 30.5 560 148.27 560 220.5 560 220.5 602.62 220.5 655.5"/>
    </g>
    <g class="f5b9a554-4623-4005-813d-aaf9fd5e307b">
      <polygon class="b81f23dd-bf53-4db0-adfa-23f670f783df" points="804.95 655.5 994.95 655.5 928.62 607.75 994.95 560 877.18 560 804.95 560 804.95 602.62 804.95 655.5"/>
    </g>
    <g>
      <g>
        <line class="acb7fe38-5c6f-4dde-827a-e94d7c93c21f" x1="368" y1="176.5" x2="215" y2="290.5"/>
        <g>
          <line class="e53b665f-d813-4d58-82e5-ac4b244a11ef" x1="812" y1="293.5" x2="655" y2="176.5"/>
          <line class="acb7fe38-5c6f-4dde-827a-e94d7c93c21f" x1="812" y1="293.5" x2="655" y2="176.5"/>
        </g>
      </g>
      <g class="e55600ee-43d5-48e8-91df-d1f07f8e1004">
        <g>
          <line class="acb7fe38-5c6f-4dde-827a-e94d7c93c21f" x1="355" y1="138.5" x2="512.5" y2="19.5"/>
          <polyline class="acb7fe38-5c6f-4dde-827a-e94d7c93c21f" points="483.81 41.18 510.5 19.5 534 37.37 667 138.5"/>
          <line class="b81f23dd-bf53-4db0-adfa-23f670f783df" x1="390.5" y1="114" x2="391" y2="174.5"/>
          <line class="b81f23dd-bf53-4db0-adfa-23f670f783df" x1="632.5" y1="114" x2="632.5" y2="178"/>
        </g>
      </g>
      <polyline class="acb7fe38-5c6f-4dde-827a-e94d7c93c21f" points="488.5 267 511 284.5 534.5 267 656 176.5 627.65 197.61"/>
      <g>
        <polyline class="e53b665f-d813-4d58-82e5-ac4b244a11ef" points="337.58 199.16 368 176.5 398 199.16 511 284.5"/>
        <polyline class="b81f23dd-bf53-4db0-adfa-23f670f783df" points="337.58 199.16 368 176.5 398 199.16 511 284.5"/>
      </g>
      <polyline class="acb7fe38-5c6f-4dde-827a-e94d7c93c21f" points="685 199.5 656 176.5 613.24 208.35"/>
      <g class="ea81b97f-6365-483b-8305-56ef8fba007e">
        <g>
          <line class="b81f23dd-bf53-4db0-adfa-23f670f783df" x1="367.5" y1="321.5" x2="511.5" y2="429.5"/>
          <line class="b81f23dd-bf53-4db0-adfa-23f670f783df" x1="246.5" y1="267" x2="246.5" y2="502"/>
          <line class="b81f23dd-bf53-4db0-adfa-23f670f783df" x1="776.5" y1="267" x2="776.5" y2="502"/>
          <line class="b81f23dd-bf53-4db0-adfa-23f670f783df" x1="655.5" y1="321.5" x2="655.5" y2="501.5"/>
          <polyline class="b81f23dd-bf53-4db0-adfa-23f670f783df" points="385.73 335.45 367.5 321 367.5 352.51 367.5 501"/>
          <g>
            <polyline class="e53b665f-d813-4d58-82e5-ac4b244a11ef" points="656 356.3 656 321.5 628.99 341.62 535.84 411 511 429.5 488.5 412"/>
            <polyline class="b81f23dd-bf53-4db0-adfa-23f670f783df" points="656 356.3 656 321.5 628.99 341.62 535.84 411 511 429.5 488.5 412"/>
          </g>
        </g>
      </g>
      <g>
        <rect class="bd4e7233-ed88-4457-832d-34efdf454ccb" x="489" y="97.5" width="18" height="18"/>
        <rect class="bd4e7233-ed88-4457-832d-34efdf454ccb" x="516" y="97.5" width="18" height="18"/>
        <rect class="bd4e7233-ed88-4457-832d-34efdf454ccb" x="489" y="123.5" width="18" height="18"/>
        <rect class="bd4e7233-ed88-4457-832d-34efdf454ccb" x="516" y="123.5" width="18" height="18"/>
      </g>
      <g>
        <rect class="bd4e7233-ed88-4457-832d-34efdf454ccb" x="346" y="246.5" width="18" height="18"/>
        <rect class="bd4e7233-ed88-4457-832d-34efdf454ccb" x="373" y="246.5" width="18" height="18"/>
        <rect class="bd4e7233-ed88-4457-832d-34efdf454ccb" x="346" y="272.5" width="18" height="18"/>
        <rect class="bd4e7233-ed88-4457-832d-34efdf454ccb" x="373" y="272.5" width="18" height="18"/>
      </g>
      <g>
        <rect class="bd4e7233-ed88-4457-832d-34efdf454ccb" x="633" y="249.5" width="18" height="18"/>
        <rect class="bd4e7233-ed88-4457-832d-34efdf454ccb" x="660" y="249.5" width="18" height="18"/>
        <rect class="bd4e7233-ed88-4457-832d-34efdf454ccb" x="633" y="275.5" width="18" height="18"/>
        <rect class="bd4e7233-ed88-4457-832d-34efdf454ccb" x="660" y="275.5" width="18" height="18"/>
      </g>
    </g>
    <line class="acb7fe38-5c6f-4dde-827a-e94d7c93c21f" x1="151.5" y1="609" x2="218.5" y2="657"/>
    <line class="acb7fe38-5c6f-4dde-827a-e94d7c93c21f" x1="871" y1="607.5" x2="808" y2="655.5"/>
    <g>
      <path d="M210.34,574.56v-1.83c4.22-.43,4.45-.79,4.43-6v-21.4c-4.08,9.49-9.35,21.57-12.54,29.2h-1.65c-2.92-7.44-7.55-19.17-11.51-28.73-.78,17.63-.8,21.3-.8,22.92.05,3,1.23,3.6,5.15,4v1.83H180.22v-1.83c3.1-.29,4.47-.9,4.9-4,.25-1.88.41-4.56,1.71-23.05.18-2.66-.25-3.93-4.94-4.36v-1.83h10.87l11,25.06L215,539.46h10.72v1.83c-4.43.46-5,.92-4.85,5.05l.36,20.42c.11,5.18.3,5.41,4.81,6v1.83Z"/>
      <path d="M252.94,538.7c9.73,0,17.92,7.22,17.92,17.89,0,11.54-8.09,18.78-18.21,18.78-10.65,0-18.38-7.89-18.38-18.21C234.27,547.77,241,538.7,252.94,538.7Zm-.9,2.24c-5.7,0-10.26,5.29-10.26,15,0,9.45,4.28,17.13,11.7,17.13,5.62,0,9.94-4.94,9.94-15C263.42,547.18,258.59,540.94,252,540.94Z"/>
      <path d="M316.33,559.78c-3.17.5-3.49.76-3.49,4.26v4.29a30.32,30.32,0,0,0,.32,5.2c-3,.58-8.35,1.84-12.78,1.84-12.54,0-19.89-7.69-19.89-18.44,0-11.88,9.68-18.23,20.93-18.23a71.89,71.89,0,0,1,11,1.28c.11,2.24.49,6.06.89,9.19l-1.94.36c-1.3-4.59-3.14-6.78-6.51-7.92a17,17,0,0,0-4.74-.67c-7.14,0-12.21,5.68-12.21,15.17,0,9.18,3.73,17,13.15,17a8.37,8.37,0,0,0,3.86-.81c.92-.55,1.45-1.35,1.45-3.21V564.5c0-3.84-.65-4.24-5.41-4.72v-1.85h15.35Z"/>
      <path d="M360.4,541.29c-3.44.28-4.47,1.25-4.65,3.38-.12,1.49-.23,3.48-.23,7.67V559c0,4.95-.72,9.48-3.81,12.74-2.51,2.61-6.28,3.63-10.08,3.63-3.41,0-6.9-.72-9.38-2.7-3.17-2.41-4.7-5.86-4.7-12V547c0-4.93-.47-5.29-4.65-5.66v-1.83h15.82v1.83c-4.15.34-4.62.73-4.62,5.66V561c0,6.7,3.24,10.8,9.26,10.8,6.86,0,9.54-4.75,9.54-13.15v-6.32c0-4.16-.16-6.14-.27-7.7-.2-2.47-1.62-3.14-5.47-3.35v-1.83H360.4Z"/>
      <path d="M395.16,565.24c-.39,2.1-1.94,7.78-2.44,9.32h-26.2v-1.83c4.81-.38,5.24-.72,5.24-5.28V546.58c0-4.56-.54-4.93-4.69-5.29v-1.83h16v1.83c-4.25.39-4.81.71-4.81,5.29v21.31c0,3.08.22,4.22,3.23,4.28.09,0,3.06.05,3.32.05,3,0,3.77-.53,5.05-2a20.88,20.88,0,0,0,3.36-5.6Z"/>
      <path d="M447.24,574.56v-1.83c4.22-.43,4.45-.79,4.43-6l0-21.4c-4.07,9.49-9.34,21.57-12.53,29.2h-1.65c-2.93-7.44-7.55-19.17-11.52-28.73-.77,17.63-.79,21.3-.79,22.92,0,3,1.23,3.6,5.14,4v1.83H417.12v-1.83c3.1-.29,4.46-.9,4.89-4,.26-1.88.42-4.56,1.72-23.05.18-2.66-.26-3.93-4.94-4.36v-1.83h10.87l10.95,25.06,11.29-25.06h10.71v1.83c-4.43.46-4.95.92-4.84,5.05l.35,20.42c.11,5.18.31,5.41,4.82,6v1.83Z"/>
      <path d="M489.87,574.56v-1.83c3.44-.47,3.59-1,2.83-3.27-.59-1.79-1.53-4.31-2.46-6.91H479.32c-.69,1.94-1.47,4-2.08,5.87-1.16,3.44-.05,3.87,4.27,4.31v1.83h-13v-1.83c3.4-.43,4.26-.88,6.12-5.53l11.21-28.07,2.29-.43c3.44,9.34,7.13,19.16,10.6,28.29,1.9,4.91,2.39,5.31,6,5.74v1.83Zm-5-26.85c-1.62,4.15-3.25,8.22-4.69,12.28h9.11Z"/>
      <path d="M548.18,541.29c-3.35.41-4.41,1.05-4.58,3.5-.12,2-.26,4-.26,8.77v21.55h-2.69l-22.72-27.43v12.66c0,4.75.12,7,.27,8.54.18,2.5,1.38,3.6,5.34,3.85v1.83H510.25v-1.83c3.17-.27,4.5-1.08,4.78-3.66a79.21,79.21,0,0,0,.31-8.75V547.18a5.85,5.85,0,0,0-1.11-4.09c-1-1.35-2.24-1.57-4.64-1.8v-1.83h9.68l21.39,25v-11c0-4.81-.07-6.78-.23-8.64-.17-2.36-1.16-3.37-5.59-3.63v-1.83h13.34Z"/>
      <path d="M573.67,574.56v-1.83c3.44-.47,3.59-1,2.84-3.27-.6-1.79-1.54-4.31-2.46-6.91H563.12c-.69,1.94-1.46,4-2.08,5.87-1.15,3.44,0,3.87,4.28,4.31v1.83h-13v-1.83c3.41-.43,4.27-.88,6.12-5.53l11.22-28.07,2.29-.43c3.44,9.34,7.13,19.16,10.6,28.29,1.9,4.91,2.39,5.31,6,5.74v1.83Zm-5-26.85c-1.62,4.15-3.24,8.22-4.69,12.28h9.12Z"/>
      <path d="M630,559.78c-3.17.5-3.49.76-3.49,4.26v4.29a30.32,30.32,0,0,0,.32,5.2c-3,.58-8.35,1.84-12.78,1.84-12.54,0-19.89-7.69-19.89-18.44,0-11.88,9.67-18.23,20.93-18.23a71.89,71.89,0,0,1,11,1.28c.11,2.24.49,6.06.88,9.19l-1.93.36c-1.3-4.59-3.15-6.78-6.51-7.92a17.07,17.07,0,0,0-4.74-.67c-7.14,0-12.21,5.68-12.21,15.17,0,9.18,3.73,17,13.15,17a8.35,8.35,0,0,0,3.85-.81c.93-.55,1.45-1.35,1.45-3.21V564.5c0-3.84-.64-4.24-5.4-4.72v-1.85H630Z"/>
      <path d="M666.9,565.58c-.29,1.44-1.78,7.43-2.28,9H637.21v-1.8c5-.44,5.3-.79,5.3-5.29V546.6c0-4.67-.63-5-4.43-5.31v-1.83h17.19c5.46,0,7.42-.06,8.14-.11.06,1.1.31,5.4.52,8.58l-1.93.27a14.2,14.2,0,0,0-2.08-4.7c-.93-1.33-1.82-1.67-4.75-1.67H651.1c-1.92,0-2.1.13-2.1,1.87v11.51h5.54c3.38,0,3.82-.81,4.58-4.59h2v11.72h-2c-.81-4-1.24-4.57-4.64-4.57H649v9.8c0,3.75.48,4.6,3.6,4.65h4.25c3.12,0,3.84-.41,5-1.85a24.25,24.25,0,0,0,3.16-5.25Z"/>
      <path d="M703.63,574.56v-1.83c4.21-.43,4.45-.79,4.43-6l0-21.4c-4.08,9.49-9.34,21.57-12.53,29.2h-1.65c-2.93-7.44-7.55-19.17-11.52-28.73-.78,17.63-.8,21.3-.8,22.92.06,3,1.23,3.6,5.15,4v1.83H673.51v-1.83c3.09-.29,4.46-.9,4.89-4,.26-1.88.41-4.56,1.71-23.05.18-2.66-.25-3.93-4.93-4.36v-1.83h10.87l11,25.06,11.29-25.06H719v1.83c-4.43.46-5,.92-4.85,5.05l.36,20.42c.11,5.18.31,5.41,4.81,6v1.83Z"/>
      <path d="M756.6,565.58c-.29,1.44-1.79,7.43-2.29,9h-27.4v-1.8c5-.44,5.29-.79,5.29-5.29V546.6c0-4.67-.63-5-4.43-5.31v-1.83H745c5.46,0,7.43-.06,8.15-.11,0,1.1.3,5.4.52,8.58l-1.94.27a14,14,0,0,0-2.08-4.7c-.93-1.33-1.82-1.67-4.74-1.67h-4.08c-1.92,0-2.1.13-2.1,1.87v11.51h5.54c3.38,0,3.83-.81,4.58-4.59h2v11.72h-2c-.81-4-1.24-4.57-4.64-4.57h-5.48v9.8c0,3.75.49,4.6,3.61,4.65h4.25c3.12,0,3.83-.41,5-1.85a23.48,23.48,0,0,0,3.16-5.25Z"/>
      <path d="M801.38,541.29c-3.35.41-4.41,1.05-4.57,3.5-.13,2-.27,4-.27,8.77v21.55h-2.68l-22.73-27.43v12.66c0,4.75.13,7,.27,8.54.18,2.5,1.39,3.6,5.35,3.85v1.83h-13.3v-1.83c3.17-.27,4.5-1.08,4.79-3.66a80.08,80.08,0,0,0,.3-8.75V547.18a5.8,5.8,0,0,0-1.11-4.09c-1-1.35-2.23-1.57-4.63-1.8v-1.83h9.68l21.39,25v-11c0-4.81-.08-6.78-.24-8.64-.16-2.36-1.16-3.37-5.58-3.63v-1.83h13.33Z"/>
      <path d="M839,548.5a17.75,17.75,0,0,0-2.12-5c-.93-1.25-1.4-1.66-4.51-1.66h-4.14v25.7c0,4.42.5,4.84,5.42,5.2v1.83H816.46v-1.83c4.74-.36,5.21-.76,5.21-5.2v-25.7h-3.86c-3,0-3.87.43-4.86,1.84a21.17,21.17,0,0,0-2.06,4.86H809c.36-3.71.72-7.64.85-10.39h1.49c.81,1.27,1.44,1.32,3,1.32h21.52a3.24,3.24,0,0,0,3-1.32h1.47c0,2.37.26,6.82.53,10.19Z"/>
    </g>
  </g>
</svg>
